#define bean20_width 20
#define bean20_height 20
static unsigned char bean20_bits[] = {
   0x00, 0xf8, 0x00, 0x00, 0xff, 0x03, 0x80, 0xff, 0x01, 0xc0, 0x3f, 0x06,
   0xf0, 0x9f, 0x0f, 0xf0, 0xcf, 0x0f, 0xf8, 0xe7, 0x0f, 0xfc, 0xf3, 0x0f,
   0xfc, 0xf3, 0x0f, 0xfe, 0xf9, 0x07, 0xfe, 0xf9, 0x07, 0xfe, 0xf9, 0x07,
   0xff, 0xfc, 0x03, 0x7f, 0xfe, 0x01, 0x3f, 0xff, 0x01, 0x9e, 0xff, 0x00,
   0xe6, 0x7f, 0x00, 0xf8, 0x1f, 0x00, 0xf8, 0x0f, 0x00, 0xf0, 0x01, 0x00 };
