#define hand20_width 21
#define hand20_height 20
static unsigned char hand20_bits[] = {
   0x80, 0x07, 0x00, 0xf0, 0x1f, 0x00, 0x38, 0x70, 0x00, 0x0c, 0xe0, 0x00,
   0x06, 0x80, 0x01, 0x06, 0x80, 0x01, 0x02, 0x00, 0x03, 0x03, 0x03, 0x03,
   0x83, 0x07, 0x03, 0x82, 0x07, 0x03, 0x82, 0x07, 0x03, 0x82, 0x07, 0x01,
   0x86, 0x07, 0x00, 0x8c, 0x07, 0x00, 0x9c, 0x1f, 0x00, 0x90, 0x3f, 0x00,
   0x80, 0xff, 0x03, 0x80, 0xff, 0x0b, 0x80, 0xff, 0x1f, 0x80, 0xff, 0x1f };
